HIERARCHY
ROOT Hips
{
	OFFSET -14.64140 90.27770 -84.91600
	CHANNELS 6 Xposition Yposition Zposition Zrotation Xrotation Yrotation
	JOINT Spine
	{
		OFFSET 0.00000 13.20850 -1.60436
		CHANNELS 3 Zrotation Xrotation Yrotation
		JOINT Spine1
		{
			OFFSET 0.00000 8.61716 0.00000
			CHANNELS 3 Zrotation Xrotation Yrotation
			JOINT Spine2
			{
				OFFSET 0.00000 8.61717 0.00000
				CHANNELS 3 Zrotation Xrotation Yrotation
				JOINT Spine3
				{
					OFFSET 0.00000 8.61717 0.00000
					CHANNELS 3 Zrotation Xrotation Yrotation
					JOINT Neck
					{
						OFFSET 0.00000 11.07920 1.10792
						CHANNELS 3 Zrotation Xrotation Yrotation
						JOINT Neck1
						{
							OFFSET 0.00000 7.08032 0.00000
							CHANNELS 3 Zrotation Xrotation Yrotation
							JOINT Head
							{
								OFFSET 0.00000 7.08031 0.00000
								CHANNELS 3 Zrotation Xrotation Yrotation
								End site
								{
									OFFSET 0.00000 0.00000 0.00000
								}
							}
						}
					}
					JOINT RightShoulder
					{
						OFFSET -0.01000 7.91373 5.19711
						CHANNELS 3 Zrotation Xrotation Yrotation
						JOINT RightArm
						{
							OFFSET -18.41580 0.00000 0.00000
							CHANNELS 3 Zrotation Xrotation Yrotation
							JOINT RightForeArm
							{
								OFFSET -29.11090 0.00000 0.00000
								CHANNELS 3 Zrotation Xrotation Yrotation
								JOINT RightHand
								{
									OFFSET -24.65040 0.00000 0.00000
									CHANNELS 3 Zrotation Xrotation Yrotation
									JOINT RightHandThumb1
									{
										OFFSET -5.35114 -0.85590 3.97906
										CHANNELS 3 Zrotation Xrotation Yrotation
										JOINT RightHandThumb2
										{
											OFFSET -4.52789 0.00000 0.00000
											CHANNELS 3 Zrotation Xrotation Yrotation
											JOINT RightHandThumb3
											{
												OFFSET -2.46976 0.00000 0.00000
												CHANNELS 3 Zrotation Xrotation Yrotation
												End site
												{
													OFFSET 0.00000 0.00000 0.00000
												}
											}
										}
									}
									JOINT RightHandIndex1
									{
										OFFSET -14.26970 0.00000 2.88139
										CHANNELS 3 Zrotation Xrotation Yrotation
										JOINT RightHandIndex2
										{
											OFFSET -5.48836 0.00000 0.00000
											CHANNELS 3 Zrotation Xrotation Yrotation
											JOINT RightHandIndex3
											{
												OFFSET -3.01859 0.00000 0.00000
												CHANNELS 3 Zrotation Xrotation Yrotation
												End site
												{
													OFFSET 0.00000 0.00000 0.00000
												}
											}
										}
									}
									JOINT RightHandMiddle1
									{
										OFFSET -14.26970 0.00000 -0.09147
										CHANNELS 3 Zrotation Xrotation Yrotation
										JOINT RightHandMiddle2
										{
											OFFSET -6.17441 0.00000 0.00000
											CHANNELS 3 Zrotation Xrotation Yrotation
											JOINT RightHandMiddle3
											{
												OFFSET -3.56743 0.00000 0.00000
												CHANNELS 3 Zrotation Xrotation Yrotation
												End site
												{
													OFFSET 0.00000 0.00000 0.00000
												}
											}
										}
									}
									JOINT RightHandRing1
									{
										OFFSET -12.69180 0.00000 -3.06433
										CHANNELS 3 Zrotation Xrotation Yrotation
										JOINT RightHandRing2
										{
											OFFSET -5.62556 0.00000 0.00000
											CHANNELS 3 Zrotation Xrotation Yrotation
											JOINT RightHandRing3
											{
												OFFSET -3.56744 0.00000 0.00000
												CHANNELS 3 Zrotation Xrotation Yrotation
												End site
												{
													OFFSET 0.00000 0.00000 0.00000
												}
											}
										}
									}
									JOINT RightHandPinky1
									{
										OFFSET -11.11390 0.00000 -6.03719
										CHANNELS 3 Zrotation Xrotation Yrotation
										JOINT RightHandPinky2
										{
											OFFSET -4.52789 0.00000 0.00000
											CHANNELS 3 Zrotation Xrotation Yrotation
											JOINT RightHandPinky3
											{
												OFFSET -2.46976 0.00000 0.00000
												CHANNELS 3 Zrotation Xrotation Yrotation
												End site
												{
													OFFSET 0.00000 0.00000 0.00000
												}
											}
										}
									}
								}
							}
						}
					}
					JOINT LeftShoulder
					{
						OFFSET 0.01000 7.91373 5.19711
						CHANNELS 3 Zrotation Xrotation Yrotation
						JOINT LeftArm
						{
							OFFSET 18.41580 0.00000 0.00000
							CHANNELS 3 Zrotation Xrotation Yrotation
							JOINT LeftForeArm
							{
								OFFSET 29.11090 0.00000 0.00000
								CHANNELS 3 Zrotation Xrotation Yrotation
								JOINT LeftHand
								{
									OFFSET 24.65040 0.00000 0.00000
									CHANNELS 3 Zrotation Xrotation Yrotation
									JOINT LeftHandThumb1
									{
										OFFSET 5.35114 -0.85590 3.97906
										CHANNELS 3 Zrotation Xrotation Yrotation
										JOINT LeftHandThumb2
										{
											OFFSET 4.52789 0.00000 0.00000
											CHANNELS 3 Zrotation Xrotation Yrotation
											JOINT LeftHandThumb3
											{
												OFFSET 2.46977 0.00000 0.00000
												CHANNELS 3 Zrotation Xrotation Yrotation
												End site
												{
													OFFSET 0.00000 0.00000 0.00000
												}
											}
										}
									}
									JOINT LeftHandIndex1
									{
										OFFSET 14.26970 0.00000 2.88139
										CHANNELS 3 Zrotation Xrotation Yrotation
										JOINT LeftHandIndex2
										{
											OFFSET 5.48836 0.00000 0.00000
											CHANNELS 3 Zrotation Xrotation Yrotation
											JOINT LeftHandIndex3
											{
												OFFSET 3.01859 0.00000 0.00000
												CHANNELS 3 Zrotation Xrotation Yrotation
												End site
												{
													OFFSET 0.00000 0.00000 0.00000
												}
											}
										}
									}
									JOINT LeftHandMiddle1
									{
										OFFSET 14.26970 0.00000 -0.09147
										CHANNELS 3 Zrotation Xrotation Yrotation
										JOINT LeftHandMiddle2
										{
											OFFSET 6.17440 0.00000 0.00000
											CHANNELS 3 Zrotation Xrotation Yrotation
											JOINT LeftHandMiddle3
											{
												OFFSET 3.56744 0.00000 0.00000
												CHANNELS 3 Zrotation Xrotation Yrotation
												End site
												{
													OFFSET 0.00000 0.00000 0.00000
												}
											}
										}
									}
									JOINT LeftHandRing1
									{
										OFFSET 12.69180 0.00000 -3.06433
										CHANNELS 3 Zrotation Xrotation Yrotation
										JOINT LeftHandRing2
										{
											OFFSET 5.62556 0.00000 0.00000
											CHANNELS 3 Zrotation Xrotation Yrotation
											JOINT LeftHandRing3
											{
												OFFSET 3.56744 0.00000 0.00000
												CHANNELS 3 Zrotation Xrotation Yrotation
												End site
												{
													OFFSET 0.00000 0.00000 0.00000
												}
											}
										}
									}
									JOINT LeftHandPinky1
									{
										OFFSET 11.11390 0.00000 -6.03719
										CHANNELS 3 Zrotation Xrotation Yrotation
										JOINT LeftHandPinky2
										{
											OFFSET 4.52789 0.00000 0.00000
											CHANNELS 3 Zrotation Xrotation Yrotation
											JOINT LeftHandPinky3
											{
												OFFSET 2.46976 0.00000 0.00000
												CHANNELS 3 Zrotation Xrotation Yrotation
												End site
												{
													OFFSET 0.00000 0.00000 0.00000
												}
											}
										}
									}
								}
							}
						}
					}
					JOINT pCube4
					{
						OFFSET 0.00000 10.91090 1.10792
						CHANNELS 3 Zrotation Xrotation Yrotation
						End site
						{
							OFFSET 0.00000 0.00000 0.00000
						}
					}
				}
			}
		}
	}
	JOINT RightUpLeg
	{
		OFFSET -9.98441 0.00000 0.00000
		CHANNELS 3 Zrotation Xrotation Yrotation
		JOINT RightLeg
		{
			OFFSET 0.00000 -42.11790 0.00000
			CHANNELS 3 Zrotation Xrotation Yrotation
			JOINT RightFoot
			{
				OFFSET 0.00000 -45.00020 -0.00001
				CHANNELS 3 Zrotation Xrotation Yrotation
				JOINT RightForeFoot
				{
					OFFSET 0.00000 -3.74820 0.00000
					CHANNELS 3 Zrotation Xrotation Yrotation
					JOINT RightToeBase
					{
						OFFSET 0.00000 0.06325 14.43120
						CHANNELS 3 Zrotation Xrotation Yrotation
						End site
						{
							OFFSET 0.00000 0.00000 0.00000
						}
					}
				}
			}
		}
	}
	JOINT LeftUpLeg
	{
		OFFSET 9.98441 0.00000 0.00000
		CHANNELS 3 Zrotation Xrotation Yrotation
		JOINT LeftLeg
		{
			OFFSET 0.00000 -42.11800 0.00000
			CHANNELS 3 Zrotation Xrotation Yrotation
			JOINT LeftFoot
			{
				OFFSET 0.00000 -45.00070 0.00000
				CHANNELS 3 Zrotation Xrotation Yrotation
				JOINT LeftForeFoot
				{
					OFFSET 0.00000 -3.74824 0.00000
					CHANNELS 3 Zrotation Xrotation Yrotation
					JOINT LeftToeBase
					{
						OFFSET 0.00000 0.06325 14.43110
						CHANNELS 3 Zrotation Xrotation Yrotation
						End site
						{
							OFFSET 0.00000 0.00000 0.00000
						}
					}
				}
			}
		}
	}
}
MOTION
Frames: 4
Frame Time: 0.050000
0.0053991194658808556 -0.0026621595595425845 0.031083712680247524 0.045990899614271365 -0.03491802404817532 0.01452385144195145 -4.167686310999915 2.673294085514387 -0.6647345104795314 -0.9293807633822873 3.610201362816185 0.37066553359293164 -1.1553106506556001 -1.3297441213772059 -0.8956295835278634 -0.23467864573676064 0.21590656968221267 -0.877359335361582 -0.04391451676682451 10.73983046677579 -0.7737047317206988 -0.10876688815253313 -1.63717221675839 -4.236599093140476 0.2847431013063291 -17.362179173022273 -0.3387792012770774 -2.222103754542364 1.2546960818048094 -13.132176583289148 72.5588763584603 10.40888961522129 10.996353992497024 34.56086840313954 5.97806933433916 95.31203751811574 18.746348027161538 -0.3323488795260857 -3.650499000040744 4.549285671973708 -0.12772888293860699 -1.6010839996157258 0.013181578938034719 0.03288749502173475 -56.25929956673852 -0.012060344385707267 0.0033105112791631417 -56.24240290859108 -38.758283022051245 -0.004087733490418089 0.02109263468670774 0.0189533658672279 0.04180222600006932 -0.009878618879451432 -0.0183271256694604 -0.047953071331431445 0.03457673436993912 -36.6877757953126 -0.0197030076188342 -0.015133819676163984 -0.04175504203589247 0.008569980880164686 0.03579682344014441 0.03548065889427748 0.018411026638305676 0.035742339613958146 -19.732496398707383 -0.018414293150253704 -0.03848237383563355 -0.018930118738905245 -0.006899726060126906 -0.009406186268258107 -0.020450248581882626 -0.0010810660851221436 -0.006182749904936666 24.02688326772115 -0.03490130779100203 0.013500936230656199 28.884751437362603 -0.02183844789733851 -0.015296245543682339 28.889405339828404 -0.029423829323295715 -0.03966341713256327 3.215432067547507 0.986354031740234 11.70424388025291 -69.09565423601198 24.71849126919395 -9.392587497707707 -21.315774867914854 4.687178012243344 -75.69708362659324 -14.276833817499575 0.46520453769402526 1.3722614087495337 -0.4974079775080277 0.07086993431473573 -8.141073513947354 0.007844506997914972 -0.011777108555687699 44.54875492368056 0.0259436071330227 0.005077819376488661 44.52860439941369 12.465347215027224 -0.007910209094189345 0.03216362162568221 -0.010072578852141042 0.03433359479721051 0.0061845639399904255 -0.047518592947843497 -0.006788875456878884 -0.019098833349859293 11.130251589898107 -0.03817911962072737 -0.022171539633562238 0.010893712642925643 0.033556430397548444 -0.04221037839116982 0.04263392898582198 0.048865063924623114 0.040248519891316316 4.7364336533409075 -0.022723241741162015 0.035366639778310845 0.010038815221097265 0.04563237415361427 -0.02567964851357402 1.242781825213883e-05 -0.016760288507383404 -0.033388644998883055 -5.5616167686233995 -0.0401220973385053 -0.024096272671077196 -6.735830364221816 -0.020038742707835195 0.004893205338327708 -6.690858123959604 -0.022115135180869036 -0.020207925117692396 -0.00515068868812168 -0.041000880196314995 0.006114775419060761 8.055336255001121 3.507685318117399 -19.21971445918086 0.015760889808126517 10.426893933570998 0.048105070228659216 -5.633890547833895 -15.630333848564216 3.209005618929729 -0.014329563015879804 -0.012268522427068202 0.045172026926564676 0.010907465906019403 4.668270271848689 0.01634590152706918 12.484451108220627 -8.261876409420347 6.93026047561471 -0.018369481693258184 46.42157237621469 -0.045422104641866926 -4.357951810392946 -14.739278073847947 -3.808282274064847 -0.02573003409187573 0.04233295790054124 0.028066655475391212 0.03591609344609612 -10.751083982106355 -0.018598165991707476 
-0.016052942574598352 -0.04097255531073394 -0.034344204949754036 0.04094079033413739 -0.026162109992855426 0.02765586743295008 -4.218265953122377 2.591836428491234 -0.6518474968473736 -0.8474662468717776 3.601242540622224 0.39338939979409415 -1.1913143497603418 -1.4097453615740205 -0.9297847165922648 -0.14947484358566573 0.19787828440023453 -0.8899678410714106 0.008078925596320948 10.620496934672635 -0.8691676601189302 -0.0746873881655438 -1.5085860714863355 -4.496674370628326 0.34604281251006674 -17.26908199461556 -0.39066889857366455 -2.0621548384613466 1.235874665847647 -12.991375099545817 72.27599246391276 9.921426851674113 10.910716788561023 36.13687888474111 6.075477609527073 95.71212630267885 18.9906619657171 -0.31741475953397635 -3.997398055592541 4.536621691507089 -0.11030244368584449 -1.6308999863229006 0.04840757881335826 -0.027690888220268092 -56.18805556572132 -0.018024252682152613 0.022998107882891274 -56.25482996184938 -38.74274775022022 0.03412809342818035 0.04193127979910961 0.004169766019843141 -0.023174740039162617 -0.04664007797167664 -0.006575446931078238 0.0323630230284489 0.01936679049953753 -36.73471093375757 -0.028831173802459982 0.03781628787753738 -0.027246349226269843 -0.03767714863352109 0.028346492179355913 -0.0007752025532199479 0.013306698988892534 -0.016621835319499012 -19.717627237107482 0.004873134051458183 0.02002237364257653 -0.024194392352128405 0.024061002906199662 -0.01724620408596254 0.028922310811229042 -0.002607235393181142 -0.02192474643849462 24.043662218044826 0.0273350801886783 -0.026330538790977253 28.86015651313566 0.025025823486943665 -0.0347950743010929 28.834548075460923 -0.029762940557186025 0.03802260868424376 2.978725917060053 1.0141136703974496 11.450664782123873 -69.188526249621 24.89351481300221 -8.964645818596747 -20.859334350681287 4.275325468159235 -74.14676997080394 -13.987176312350192 0.35445145315899884 1.4907667285674377 -0.4871489632221201 0.09575231338707108 -8.080080075456618 -0.006017193314025013 0.0170880271659321 44.51985762262764 0.041088364108553675 0.03325631943572957 44.55147458104057 12.413141853914226 -0.009161651149098683 -0.024031631222924368 0.03422677498376308 -0.03864029723268369 -0.021049433198527975 -0.002183598165689658 -0.03409436735302791 -0.01209969976232863 11.073288248452089 -0.014297758329729168 0.032062176838260625 -0.04558506389515393 0.025168836465444107 -0.04082465563003263 -0.04235411169967088 -0.005209336552666432 0.006851074290699517 4.752356994719987 -0.04472604982611258 -0.022058524978999357 0.016173034980783974 -0.036402755416123075 0.03595491483319957 -0.01194081128127582 -0.03962559507040504 0.03241846591653096 -5.57033988514505 0.009213756003541445 -0.01638427087690642 -6.730542430443707 -0.02812448130059995 0.041983757014686825 -6.691257912519732 0.030415167021265874 0.0019657536690555664 0.01163089733397124 -0.04963795011660206 0.03350687452981669 8.092183927665594 3.475482076906146 -19.21773569155353 0.002854134196204083 10.406164179012507 0.0002662275879298844 -5.6048857298917545 -15.641009649737565 3.174693025196289 -0.035365674196816625 0.0050637208502022114 0.025595600448464966 -0.023559016968416054 4.696697427495064 -0.018625117188259443 12.508202025922106 -8.228469029416413 6.848612531394453 -0.025513771324482307 46.41408518291601 0.04369980707500038 -4.347658809823827 -14.792583043397848 -3.8652480982558313 0.015918642375403393 0.048353433441736884 0.022945781094908267 0.012679114592496654 -10.773529684876372 -0.02531623305324105 
-0.04919697363714955 -0.04569204299343735 -0.003233562758477436 -0.026623442275404446 -0.010287423491347076 -0.0014881128155639094 -4.23118637726176 2.5829107430391636 -0.6836375675719623 -0.847120759680464 3.565600548977981 0.39257393591589007 -1.2300267748050293 -1.4372555831378757 -0.998136950333639 -0.1210219549566662 0.22484708550636903 -0.9089761456488861 0.019810586223593003 10.714580502506681 -0.854009868232599 -0.025305920440676477 -1.4565065105001522 -4.571978371310208 0.2991837561799045 -17.022869544776214 -0.37373068970324386 -2.060100991680018 1.2863337023532104 -12.897321113270594 72.21691879681617 9.561018180744268 10.951877238607974 37.6757452478049 6.095632761654666 95.92393064127504 19.017702087269765 -0.304914162930873 -4.097157129525584 4.479423447172265 -0.11205975526028321 -1.5783558744255188 0.04181370825560193 0.04408331336095376 -56.24296113902155 -0.02080434126619616 -0.00918305795664288 -56.2582290079519 -38.747434689255535 -0.013483620191569842 0.017441504107038527 0.03513917577010904 -0.017719707667598755 -0.018170671024400235 0.017585914169321756 0.013810446323734665 0.035569024053922475 -36.73354583897546 0.011068441760403037 0.030496045368608983 0.018358955243512744 -0.013191959214862626 0.001571699170329033 0.001749537470936518 0.04820486526685032 -0.019973425458267833 -19.77364186707992 -0.025349529364170995 0.022572989744162497 -0.04433390387510243 0.030122369586652854 -0.017735395935408904 -0.04969948469964616 -0.01652251034680921 0.029874632986894568 24.015488855827886 -0.020475726202504915 -0.03406300850486357 28.836137523568645 0.019959682440728845 0.00328315466278628 28.914983969595802 -0.040585059065556976 -0.0077084314874388505 2.953785495828783 0.9306215640077832 11.412138614493129 -69.16492938622105 25.16055465865342 -8.660979132145526 -20.718223817070594 4.224773408845289 -73.42034201641935 -13.74626789909735 0.29729101312484163 1.6950559978551405 -0.4476336561380094 0.018559830916901207 -8.105842755517886 0.006280700000491241 -0.012055138807339673 44.56006659429444 -0.029581246254371668 -0.04461152970426711 44.615892116356186 12.411654874455373 -0.045599108254365736 0.038576081763644535 -0.009580011764279557 0.004793013517750229 0.03002192319089611 -0.025416203045283255 0.04554468201200521 -0.012983703307818836 11.08112705817726 0.03440162184622497 -0.0034196801970930247 -0.02431562123435305 -0.007649911693942961 0.01185662864997745 -0.00017361780390048114 0.013284396437224944 -0.04974856115975626 4.793702530714146 0.008715047203230507 -0.002339036896730803 0.02183590548919999 0.04203339944634116 0.04319691446857014 0.04590829141477901 0.009250041968067137 0.03177354083214644 -5.594361429049851 0.03007011694879673 -0.007279532504238213 -6.731416013881643 -0.01330150253655909 0.018095506877418555 -6.684488937174335 -0.006802176803165481 -0.02695946045769556 -0.007467778208084466 0.01054904402325819 0.0027190841287264432 8.026915664464948 3.53606696362336 -19.209595888256256 0.029469678417303184 10.347496809422145 -0.013610531480868195 -5.596783318232404 -15.631563683364638 3.157866460890362 -0.023712627042334813 0.011752867486188211 -0.009088115058481035 -0.022832423191776557 4.695110781147574 -0.0002140685078994132 12.50604092195745 -8.253328172754946 6.841503033728864 0.0074321979453167335 46.414433916011255 0.003920820385320966 -4.335822870107386 -14.76763570345823 -3.878406258253182 -0.01978246824932204 -0.006672285758898683 0.040019446536492746 0.034084993895368294 -10.793053584749236 0.038253744963746755 
0.0322908268054711 -0.029886982325397573 -0.03472090991818645 0.007511685880327844 0.03930337075589832 0.015037513404499672 -4.239795653502062 2.3783535436211194 -0.6558530638284266 -0.9113439013250355 3.5508085107109033 0.40106235290849135 -1.213608711972806 -1.4232690215011174 -0.9934826057123974 -0.15279694647434522 0.2650257625852021 -0.8428845692245552 0.11673565956749077 10.928261773358788 -0.8772493214540783 -0.06190249258119795 -1.2385700817058367 -4.480501686557086 0.3289334088471798 -16.780178124908037 -0.32498101297722665 -2.1797400397213855 1.2409419854001542 -12.912677103351514 72.12793944023264 9.307940878423448 10.963814480192095 39.058885257001045 6.083531422086063 96.05177401196985 18.826243272876564 -0.28514701919649393 -4.097558925681045 4.506020664649115 -0.09684485694505428 -1.560933722743837 0.016125936483826337 0.010900590115831818 -56.21515037745246 0.0030156825424411766 -0.03937644903789503 -56.211023884521005 -38.743516230052094 0.03396263867013289 0.015269109593143803 -0.009280612084634784 0.04777478941857003 0.02686635885883941 -0.027408798170271097 -0.013808170375104177 -0.04209232174742921 -36.7100342003238 0.03532024365217743 0.03754615769143248 0.03154627001144 -0.04569537897169789 0.026483395946315012 -0.04308277131971595 -0.026659952358686956 0.03529380180686622 -19.739680560528218 -0.02732045213797343 0.010702199083212979 -0.028824818159958642 -0.048775779449063375 -0.002451823695467957 -0.020102865687121076 0.023928414837804536 -0.02225632990358801 24.044723835017415 -0.033875427200450815 -0.02144267292476224 28.83332146953851 -0.021730990820849554 0.04168106318701254 28.857753672442808 0.0200437960030482 0.016825530078303143 2.978128906157585 0.9911242276297706 11.36763012259583 -69.15898719766211 25.448536531073735 -8.51098912876697 -20.715183733316554 4.507686071605066 -73.24376794995503 -13.430147135138592 0.26049487399052923 1.730211904119515 -0.4590483970098215 0.018165156657432735 -8.102648909830258 0.04138247007813495 0.022248375715129203 44.59180223076805 0.007772446873713923 -0.030810981772727616 44.61229756366633 12.450869362049469 0.03772374925695546 0.03662166449047711 -0.04843238563068598 -0.027053409306966474 -0.02164585125885877 -0.028214708854488586 -0.013826555216725099 0.04535086084374819 11.076320394066142 -0.03990263701987782 -0.018057192475496198 0.030738724182033012 0.015300102664067238 0.025599535171316638 -0.017359448524233958 0.038203195537494634 -0.004206288782916796 4.7995594726756305 -0.005213888392615716 0.01887639278182774 0.04984526137518961 0.03993079826620858 0.016887996997588334 -0.04878406667953675 -0.0458309143332827 -0.028056053937735595 -5.6420400868266665 -0.0033183577186319717 0.008880226615385765 -6.70062388119483 -0.0416324040158564 0.018687409187371707 -6.6870197667035 -0.008038518197082565 0.012941893786866958 0.0028812425776548693 0.0285407883908976 -0.00520335526429361 8.066443559693504 3.485831844643705 -19.212516659215165 -0.005723619594569313 10.388297415211614 0.0057375506054506715 -5.5735003064184365 -15.660082571473326 3.1780939588028496 0.018923156299571305 -0.010104239145196729 0.03475636939084586 -0.0052512685675896445 4.683405748607271 0.04774019027204632 12.418101125898414 -8.273047862777362 6.867390622869734 0.01706196885042686 46.34885773144898 -0.029213847465779978 -4.372682889913948 -14.731831380135331 -3.8203711609256445 -0.012068902083361527 0.046835988337206785 -0.04091850098120584 0.015988476289139547 -10.745957493082415 -0.02481634144400053 
